<svg width="32" height="32" viewBox="0 0 32 32" fill="none" xmlns="http://www.w3.org/2000/svg">
<path d="M25.2704 2.06404C25.5705 1.76409 25.9774 1.59558 26.4016 1.59558C26.8259 1.59558 27.2328 1.76409 27.5328 2.06404L29.9376 4.46884C30.2376 4.76888 30.4061 5.17578 30.4061 5.60004C30.4061 6.0243 30.2376 6.43119 29.9376 6.73124L27.5328 9.13604C27.2328 9.43599 26.8259 9.6045 26.4016 9.6045C25.9774 9.6045 25.5705 9.43599 25.2704 9.13604L22.864 6.73124C22.5641 6.43119 22.3956 6.0243 22.3956 5.60004C22.3956 5.17578 22.5641 4.76888 22.864 4.46884L25.2704 2.06404ZM8.80005 27.2H11.2V20.8H4.80005V23.2C4.80005 24.2609 5.22148 25.2783 5.97162 26.0285C6.72177 26.7786 7.73918 27.2 8.80005 27.2ZM11.2 12.8V19.2H4.80005V12.8H11.2ZM19.2 19.2H12.8V12.8H19.2V19.2ZM12.8 20.8H19.2V27.2H12.8V20.8ZM20.8 12.8V19.2H27.2V12.8H20.8ZM20.8 20.8H27.2V23.2C27.2 24.2609 26.7786 25.2783 26.0285 26.0285C25.2783 26.7786 24.2609 27.2 23.2 27.2H20.8V20.8ZM4.80005 11.2H11.2V4.80004H8.80005C7.73918 4.80004 6.72177 5.22147 5.97162 5.97161C5.22148 6.72176 4.80005 7.73917 4.80005 8.80004V11.2ZM12.8 11.2V4.80004H19.2V11.2H12.8Z" fill="#4EC40A"/>
</svg>
